<svg width="28" height="28" viewBox="0 0 28 28" fill="none" xmlns="http://www.w3.org/2000/svg">
<path d="M11.3223 15.4465C11.2344 15.4465 9.39003 15.447 8.53939 15.4462C8.10147 15.4459 7.94523 15.2885 7.94523 14.8478C7.94467 13.7158 7.94439 12.5837 7.94523 11.4517C7.94551 11.0166 8.11071 10.8505 8.54303 10.8503C9.39367 10.8497 11.228 10.85 11.3223 10.85C11.3223 10.7724 11.322 9.13806 11.3223 8.38542C11.3229 7.2727 11.5214 6.20758 12.0867 5.23234C12.6655 4.23414 13.5077 3.55038 14.5871 3.15502C15.2784 2.90162 15.9961 2.80054 16.7297 2.79998C17.6475 2.79942 18.5654 2.80026 19.4835 2.80194C19.878 2.8025 20.053 2.97694 20.0538 3.37426C20.0555 4.4391 20.0555 5.50394 20.0538 6.5685C20.0533 6.97002 19.8856 7.1313 19.4821 7.13578C18.7297 7.1439 17.9768 7.13886 17.2253 7.1691C16.4662 7.1691 16.0669 7.53982 16.0669 8.3255C16.0487 9.15654 16.0594 9.98842 16.0594 10.8497C16.1305 10.8497 18.2907 10.8494 19.3004 10.8497C19.759 10.8497 19.9158 11.0073 19.9158 11.4685C19.9158 12.5944 19.9155 13.7205 19.9147 14.8464C19.9144 15.3009 19.7671 15.4459 19.3057 15.4462C18.296 15.4467 16.1442 15.4465 16.0501 15.4465V24.5591C16.0501 25.0449 15.8972 25.1997 15.4179 25.1997C14.2492 25.1997 13.0802 25.2 11.9114 25.1997C11.4878 25.1997 11.3226 25.0351 11.3226 24.6114C11.3223 21.6437 11.3223 15.5506 11.3223 15.4465Z" fill="#3D6AD6"/>
</svg>
